<svg xmlns="http://www.w3.org/2000/svg" id="Layer_1" data-name="Layer 1" viewBox="0 -0.01 196.98 481.7"><path d="M47.94,72.82a63.68,63.68,0,1,1,63.68,63.68A63.68,63.68,0,0,1,47.94,72.82ZM183.37,150.4c-20.53.58-123,.58-143.5,0-26-.75-26.77,25.27-26.77,25.27l.05,142.05a24.26,24.26,0,0,0,43.08,13c.26,7.52,4.87,134.65,4.87,135.34a24.8,24.8,0,0,0,24.07,24.78h52.89a24.8,24.8,0,0,0,24.08-24.78c0-.69,4.6-127.82,4.86-135.34a24.26,24.26,0,0,0,43.08-13l0-142.05S209.39,149.65,183.37,150.4Z" transform="translate(-13.1 -9.15)"/></svg>