<svg xmlns="http://www.w3.org/2000/svg" id="Layer_1" data-name="Layer 1" viewBox="0 -0.01 197.48 376.35"><path class="cls-1" d="M186.58,125.44a63.82,63.82,0,1,1,63.82,63.81A63.82,63.82,0,0,1,186.58,125.44ZM322.3,203.17c-20.57.4-123.23.4-143.81,0-26.07-.52-26.81,25.24-26.81,25.24l0,58.12c1.11,8.54,11.52,19.7,24.21,19.7,7.67,0,14.5-2.44,19-6.26.26,5.19,4.87,120.43,4.87,120.9,0,9.28,10.74,16.83,24.13,17.09h53c13.38-.26,24.12-7.81,24.12-17.09,0-.47,4.62-115.71,4.88-120.9,4.45,3.82,11.29,6.26,19,6.26,12.69,0,23.11-11.16,24.22-19.7l.05-58.12S348.37,202.65,322.3,203.17Z" transform="translate(-151.68 -61.62)"/></svg>